<svg xmlns="http://www.w3.org/2000/svg" xmlns:xlink="http://www.w3.org/1999/xlink" viewBox="0,0,256,256" width="128px" height="128px"><g fill="#c3c3c3" fill-rule="nonzero" stroke="none" stroke-width="1" stroke-linecap="butt" stroke-linejoin="miter" stroke-miterlimit="10" stroke-dasharray="" stroke-dashoffset="0" font-family="none" font-weight="none" font-size="none" text-anchor="none" style="mix-blend-mode: normal"><g transform="scale(4,4)"><path d="M32,6c-14.359,0 -26,11.641 -26,26c0,14.359 11.641,26 26,26c14.359,0 26,-11.641 26,-26c0,-14.359 -11.641,-26 -26,-26zM32,9c12.703,0 23,10.297 23,23c0,12.703 -10.297,23 -23,23c-12.703,0 -23,-10.297 -23,-23c0,-12.703 10.297,-23 23,-23zM32,12c-6.805,0 -12.81959,3.42286 -16.43359,8.63086c0.29,0 0.56836,-0.00391 0.81836,-0.00391c2.121,0 5.41016,-0.25195 5.41016,-0.25195c1.091,-0.063 1.21405,1.56327 0.12305,1.69727c0,0 -1.11394,0.188 -2.33594,0.25l7.37695,22.37305l4.42578,-13.57422l-3.13477,-8.79883c-1.091,-0.063 -2.15234,-0.25 -2.15234,-0.25c-1.091,-0.063 -0.96795,-1.76027 0.12305,-1.69727c0,0 3.35766,0.25195 5.34766,0.25195c2.121,0 5.41016,-0.25195 5.41016,-0.25195c1.091,-0.063 1.21405,1.56327 0.12305,1.69727c0,0 -1.12194,0.188 -2.33594,0.25l7.31641,22.24609l2.0293,-6.91211c1.022,-2.687 1.53711,-4.94961 1.53711,-6.72461c0,-2.561 -0.88416,-4.28125 -1.66016,-5.65625c-1.022,-1.705 -1.9668,-3.19734 -1.9668,-4.90234c0,-1.749 1.18388,-3.34675 2.92188,-3.59375c-3.492,-2.974 -8.00836,-4.7793 -12.94336,-4.7793zM49.85742,23.04492c0.022,0.375 0.03125,0.76011 0.03125,1.16211c0,2.097 -0.38411,4.46302 -1.53711,7.41602l-5.83398,17.35547c5.681,-3.532 9.48242,-9.81152 9.48242,-16.97852c0,-3.222 -0.78358,-6.25708 -2.14258,-8.95508zM13.66016,24.04297c-1.063,2.441 -1.66016,5.12903 -1.66016,7.95703c0,7.729 4.41466,14.43467 10.84766,17.76367zM32.36914,33.82227l-5.86914,17.39063c1.75,0.502 3.591,0.78711 5.5,0.78711c2.264,0 4.43189,-0.3958 6.46289,-1.0918z"></path></g></g></svg>